<svg xmlns="http://www.w3.org/2000/svg" viewBox="0 0 100 100" width="100" height="100" fill="none" stroke="#111827" stroke-width="2.5" stroke-linecap="round" stroke-linejoin="round">
  <!-- Base de suelo -->
  <line x1="20" y1="92" x2="80" y2="92" stroke-width="3" />
  <!-- Patas principales del fuste -->
  <line x1="50" y1="12" x2="28" y2="92" />
  <line x1="50" y1="12" x2="72" y2="92" />
  <!-- Cuspide -->
  <polygon points="50,8 46,14 54,14" fill="#111827" />
  <!-- Crucetas horizontales -->
  <line x1="26" y1="30" x2="74" y2="30" />
  <line x1="22" y1="48" x2="78" y2="48" />
  <line x1="32" y1="68" x2="68" y2="68" />
  <!-- Aisladores colgantes -->
  <line x1="26" y1="30" x2="26" y2="36" />
  <line x1="74" y1="30" x2="74" y2="36" />
  <line x1="22" y1="48" x2="22" y2="54" />
  <line x1="78" y1="48" x2="78" y2="54" />
  <!-- Celosías en aspa (X) -->
  <line x1="43" y1="30" x2="57" y2="48" />
  <line x1="57" y1="30" x2="43" y2="48" />
  <line x1="40" y1="48" x2="60" y2="68" />
  <line x1="60" y1="48" x2="40" y2="68" />
  <line x1="35" y1="68" x2="65" y2="92" />
  <line x1="65" y1="68" x2="35" y2="92" />
</svg>
